<?xml version="1.0" encoding="iso-8859-1"?>
<!-- Generator: Adobe Illustrator 19.0.0, SVG Export Plug-In . SVG Version: 6.00 Build 0)  -->
<svg version="1.1" id="Layer_1" xmlns="http://www.w3.org/2000/svg" xmlns:xlink="http://www.w3.org/1999/xlink" x="0px" y="0px"
	 viewBox="0 0 206.491 206.491" style="enable-background:new 0 0 206.491 206.491;" xml:space="preserve">
<g>
	<g>
		<circle style="fill:#73CCD9;" cx="103.245" cy="103.246" r="103.245"/>
		<path style="fill:#58BBC5;" d="M103.244,0L103.244,0v206.49l0,0c57.021,0,103.246-46.224,103.246-103.244
			C206.491,46.224,160.267,0,103.244,0z"/>
	</g>
	<g>
		<path style="fill:#FFFFFF;" d="M164.484,38.055l-23.867,23.867l-2.855-2.855c-5.063-5.063-13.299-5.063-18.361,0l-54.67,54.671
			c-0.361,0.361-0.688,0.74-0.996,1.129c-3.123-1.061-6.713-0.354-9.203,2.137c-3.494,3.491-3.492,9.155,0,12.647l3.978,3.978
			l-12.267,12.268c-2.078-1.64-5.096-1.503-7.012,0.411c-2.064,2.065-2.064,5.414,0,7.48l12.787,12.787
			c2.064,2.063,5.414,2.065,7.477,0c1.625-1.625,1.967-4.039,1.037-6.002l12.461-12.46l3.162,3.161
			c3.492,3.492,9.156,3.492,12.648,0c2.18-2.181,2.998-5.207,2.455-8.024c0.566-0.407,1.115-0.851,1.623-1.36l54.672-54.671
			c5.06-5.061,5.062-13.297,0-18.359l-2.363-2.361l23.869-23.867L164.484,38.055z M57.693,157.291l-8.363-8.364l12.238-12.238
			l8.363,8.362L57.693,157.291z M143.882,72.53c3.037,3.037,3.037,7.979,0,11.016l-54.672,54.671
			c-0.137,0.138-0.283,0.262-0.428,0.389l-20.768-20.767c0.127-0.146,0.25-0.29,0.389-0.428l14.178-14.179l8.365,8.364l4.588-4.59
			l-8.363-8.365l7.65-7.649l8.363,8.363l4.588-4.589l-8.361-8.363l7.648-7.65l8.363,8.363l4.592-4.59l-8.363-8.363l7.648-7.65
			l8.365,8.364l4.59-4.59l-8.297-8.298c3.045-2.253,7.373-2.01,10.133,0.749L143.882,72.53z"/>
		<g>
			<path style="fill:#B2E0E8;" d="M145.189,66.497l23.869-23.867l-4.574-4.574l-23.867,23.867l-2.855-2.855
				c-5.063-5.063-13.299-5.063-18.361,0l-16.156,16.156v7.345l3.814-3.815l8.363,8.363l4.592-4.59l-8.363-8.363l7.648-7.65
				l8.365,8.364l4.59-4.59l-8.297-8.298c3.045-2.253,7.373-2.01,10.133,0.749l9.791,9.792c3.037,3.037,3.037,7.979,0,11.016
				l-40.637,40.635v7.345l44.309-44.308c5.06-5.061,5.062-13.297,0-18.359L145.189,66.497z"/>
			<polygon style="fill:#B2E0E8;" points="103.244,90.238 103.244,99.294 107.771,94.766 			"/>
		</g>
	</g>
</g>
<g>
</g>
<g>
</g>
<g>
</g>
<g>
</g>
<g>
</g>
<g>
</g>
<g>
</g>
<g>
</g>
<g>
</g>
<g>
</g>
<g>
</g>
<g>
</g>
<g>
</g>
<g>
</g>
<g>
</g>
</svg>
